<svg xmlns="http://www.w3.org/2000/svg" xmlns:svgjs="http://svgjs.com/svgjs" xmlns:xlink="http://www.w3.org/1999/xlink" width="288" height="288"><svg xmlns="http://www.w3.org/2000/svg" width="288" height="288" viewBox="0 0 32 32"><path fill="#f6eefd" d="M26 32H6a6 6 0 01-6-6V6a6 6 0 016-6h20a6 6 0 016 6v20a6 6 0 01-6 6z" class="colorfff9dd svgShape"/><path fill="#b98ce6" d="M10.667 12.5a3.171 3.171 0 013.167-3.167h6.089A1.832 1.832 0 0018.167 8H10.5a1.835 1.835 0 00-1.833 1.833v10.333c0 1.012.822 1.834 1.833 1.834h.167z" class="colorffe777 svgShape"/><path fill="#7a29d0" d="M21.5 10.667h-7.667A1.835 1.835 0 0012 12.5v9.667c0 1.011.822 1.833 1.833 1.833H21.5a1.835 1.835 0 001.833-1.833V12.5a1.835 1.835 0 00-1.833-1.833zM20.167 22h-5a.5.5 0 010-1h5a.5.5 0 010 1zm0-2.667h-5a.5.5 0 010-1h5a.5.5 0 010 1zm0-2.333h-5a.5.5 0 010-1h5a.5.5 0 010 1zm0-2.667h-5a.5.5 0 010-1h5a.5.5 0 010 1z" class="colorffd200 svgShape"/></svg></svg>