<svg xmlns="http://www.w3.org/2000/svg" xmlns:svgjs="http://svgjs.com/svgjs" xmlns:xlink="http://www.w3.org/1999/xlink" width="288" height="288"><svg xmlns="http://www.w3.org/2000/svg" width="288" height="288" viewBox="0 0 195.1 163.6"><path fill="none" d="M195.1 16.1v132.2c-1.3 2.2-4.5 5.3-11.5 7.5l-.9.3c-1.7.5-3.6.9-5.8 1.3-6.1 1-14.1 1.5-24.6.8-4.8-.3-9-.8-12.9-1.5-1.8-.3-3.4-.7-5-1-3-.8-5.8-1.6-8.3-2.6-.2-.1-.4-.2-.7-.3-1.4-.5-2.8-1.1-4.1-1.7-1.3-.6-2.6-1.2-3.8-1.9-4.5-2.3-8.5-4.8-12.8-7.1-2.4-1.3-4.9-2.6-7.6-3.8-.6-.3-1.2-.5-1.8-.8-4.9-2-11.8-2.9-20-2.6-13.5.5-30.3 4.1-46.7 11.4-3.3 1.4-6.5 3-9.7 4.7-6.6 3.5-13 7.7-18.9 12.5V16.1C0 7.2 7.2 0 16.1 0h163c8.8 0 16 7.2 16 16.1z"/><linearGradient id="a" x1="0" x2="195.1" y1="81.75" y2="81.75" gradientUnits="userSpaceOnUse"><stop class="stopColorfff svgShape" offset="0" stop-color="#fff"/><stop class="stopColord8e0ff svgShape" offset="1" stop-color="#d8e0ff"/></linearGradient><path fill="url(#a)" d="M179.1 0H0v163.5c5.9-4.8 12.3-9 18.9-12.5 3.2-1.7 6.4-3.3 9.7-4.7 16.4-7.3 33.2-10.9 46.7-11.4 8.2-.3 15.1.6 20 2.6.6.3 1.2.5 1.8.8 2.7 1.2 5.2 2.5 7.6 3.8 4.3 2.3 8.3 4.8 12.8 7.1 1.2.7 2.5 1.3 3.8 1.9 1.3.6 2.7 1.2 4.1 1.7.3.1.5.2.7.3 2.5 1 5.3 1.8 8.3 2.6 1.6.3 3.2.7 5 1 3.9.7 8.1 1.2 12.9 1.5 10.5.7 18.5.2 24.6-.8 2.2-.4 4.1-.8 5.8-1.3l.9-.3c7-2.2 10.2-5.3 11.5-7.5V0h-16z"/><linearGradient id="b" x1="235.595" x2="136.49" y1="275.942" y2="83.364" gradientTransform="matrix(1 0 0 -1 0 166)" gradientUnits="userSpaceOnUse"><stop class="stopColorfff svgShape" offset="0" stop-color="#fff"/><stop class="stopColord8e0ff svgShape" offset="1" stop-color="#d8e0ff"/></linearGradient><path fill="url(#b)" d="M151.9 0h-23.6c.1 10.1 2.4 19.7 6.4 28.3.3.6.6 1.1.8 1.7l.3.6c6.4 12.3 16.5 22.4 28.8 28.9.3.2.6.3.9.5 8.9 4.5 19 7.1 29.6 7.3V43.7c-23.7-.6-42.9-19.9-43.2-43.7z"/><path fill="#fff" d="M104.8 41.1v101c-2.4-1.3-4.9-2.6-7.6-3.8-.6-.3-1.2-.5-1.8-.8-4.9-2-11.8-2.9-20-2.6-13.5.5-30.3 4.1-46.7 11.4-3.3 1.4-6.5 3-9.7 4.7V41c0-3.9 3.2-7.1 7.1-7.1h71.7c3.8.1 7 3.3 7 7.2z" class="colorfff svgShape"/><path fill="#8bbcff" d="M96.1 108.2H29.7c-.6 0-1.1.5-1.1 1.1 0 .6.5 1.1 1.1 1.1h66.4c.6 0 1.1-.5 1.1-1.1 0-.6-.5-1.1-1.1-1.1zm0 6.2H29.7c-.6 0-1.1.5-1.1 1.1 0 .6.5 1.1 1.1 1.1h66.4c.6 0 1.1-.5 1.1-1.1 0-.6-.5-1.1-1.1-1.1zm0 6.2H29.7c-.6 0-1.1.5-1.1 1.1 0 .6.5 1.1 1.1 1.1h66.4c.6 0 1.1-.5 1.1-1.1 0-.6-.5-1.1-1.1-1.1zm1.1 10v7.8c-.6-.3-1.2-.5-1.8-.8-4.9-2-11.8-2.9-20-2.6-13.5.5-30.3 4.1-46.7 11.4v-15.8c0-2.1 1.7-3.8 3.8-3.8h61.1c1.9 0 3.6 1.7 3.6 3.8z" class="color8bbcff svgShape" enable-background="new" opacity=".25"/><linearGradient id="c" x1="34.953" x2="77.508" y1="18.858" y2="121.064" gradientTransform="matrix(1 0 0 -1 0 166)" gradientUnits="userSpaceOnUse"><stop class="stopColorff227d svgShape" offset="0" stop-color="#ff227d"/><stop class="stopColorff967d svgShape" offset="1" stop-color="#faae42"/></linearGradient><path fill="url(#c)" d="M91.6 63.2v32.2c0 2.7-2.2 4.9-4.9 4.9h-47c-2.7 0-4.9-2.2-4.9-4.9V63.2c0-2.7 2.2-4.9 4.9-4.9h46.9c2.8 0 5 2.2 5 4.9z"/><path fill="#fff" d="M89.4 81.3v12c0 2.5-2 4.5-4.5 4.5H41.6c-2.5 0-4.5-2-4.5-4.5V88l9.3-9.3c1.1-1.1 2.9-1.1 4 0l7.9 7.9c1.1 1.1 2.9 1.1 4 0l14.3-14.3c1.1-1.1 2.9-1.1 4 0l8.8 9zM71.1 67.6c0 1.5-1.2 2.8-2.8 2.8s-2.8-1.2-2.8-2.8c0-1.5 1.2-2.8 2.8-2.8s2.8 1.2 2.8 2.8z" class="colorfff svgShape" enable-background="new" opacity=".45"/><linearGradient id="d" x1="3.389" x2="22.987" y1="61.868" y2="110.011" gradientTransform="matrix(1 0 0 -1 0 166)" gradientUnits="userSpaceOnUse"><stop class="stopColor671cc9 svgShape" offset="0" stop-color="#039be5"/><stop class="stopColor6766c9 svgShape" offset="1" stop-color="#6766c9"/></linearGradient><path fill="url(#d)" d="M28.6 63.2v32.2c0 2.7-2.2 4.9-4.9 4.9H0v-42h23.7c2.7 0 4.9 2.2 4.9 4.9z"/><path fill="#fff" d="M26.4 81.3v12c0 2.5-2 4.5-4.5 4.5H0V85.7l13.4-13.4c1.1-1.1 2.8-1.1 3.9 0l1.6 1.6 7.5 7.4zM8.2 67.6c0 1.5-1.2 2.8-2.8 2.8s-2.8-1.2-2.8-2.8c0-1.5 1.2-2.8 2.8-2.8s2.8 1.2 2.8 2.8z" class="colorfff svgShape" enable-background="new" opacity=".45"/><linearGradient id="e" x1="178.078" x2="191.753" y1="32.657" y2="14.34" gradientTransform="matrix(1 0 0 -1 0 166)" gradientUnits="userSpaceOnUse"><stop class="stopColorff7570 svgShape" offset="0" stop-color="#ff7570"/><stop class="stopColorfbb svgShape" offset="1" stop-color="#fbb"/></linearGradient><path fill="url(#e)" d="M195.1 140.9v7.4c-1.3 2.2-4.5 5.3-11.5 7.5l-.9.3-3.3-8.3-.3-.6 3.5-2.4 6.2-4.3 4.6-3.2 1.3 3 .4.6z"/><linearGradient id="f" x1="158.617" x2="125.176" y1="128.371" y2="71.179" gradientTransform="matrix(1 0 0 -1 0 166)" gradientUnits="userSpaceOnUse"><stop class="stopColorff7570 svgShape" offset="0" stop-color="#ff7570"/><stop class="stopColorfbb svgShape" offset="1" stop-color="#fbb"/></linearGradient><path fill="url(#f)" d="M153.6 98.8s-18.7 7.5-18.6 4.8c.1-2.7-2.6-10.5-2.6-10.5s-7.2 4-11.1-2.4-8.6-21.1-7.8-28.5c0 0 2.8 1.6 4.3 1.4-.6 3.2 1.5 9.2 2.1 10.1s1-.1 1-3.7 2-5.2 4.8-4.8c2.8.4 3.9 6.1 3 8.7-.9 2.6-3.8 1-3.5 2.5s7.2 10.3 14.2 12.7c.6.2 1.2.4 1.7.5 4.1 1 6.9-.2 8.2-1 .1-.1.3-.2.4-.3l.1-.1c.1-.1.2-.2.3-.2l.1-.1.2.7 3.2 10.2z"/><linearGradient id="g" x1="134.888" x2="149.707" y1="109.049" y2="37.804" gradientTransform="matrix(1 0 0 -1 0 166)" gradientUnits="userSpaceOnUse"><stop class="stopColorff7570 svgShape" offset="0" stop-color="#ff7570"/><stop class="stopColorfbb svgShape" offset="1" stop-color="#fbb"/></linearGradient><path fill="url(#g)" d="M153.6 98.8s-18.7 7.5-18.6 4.8c.1-2.7-2.6-10.5-2.6-10.5 3.2-.9 5.6-2.5 8.7-3.5 2.2-.7 4.7-1.2 8.2-1 .4 0 .7 0 1.1.1l3.2 10.1z"/><linearGradient id="h" x1="135.411" x2="138.07" y1="67.008" y2="175.871" gradientTransform="matrix(1 0 0 -1 0 166)" gradientUnits="userSpaceOnUse"><stop class="stopColor2a1f31 svgShape" offset="0" stop-color="#2a1f31"/><stop class="stopColor6a517f svgShape" offset="1" stop-color="#6a517f"/></linearGradient><path fill="url(#h)" d="M166 57.2c-.3 2.3-1.1 5.2-2.7 8.7-6.2 13.4-13.2 22-13.2 22l-.1.1-.3.2-.1.1c-1.2.9-4.7 2.8-10.3.8-7-2.5-13.9-11.3-14.2-12.7-.3-1.4 2.6.1 3.5-2.5.9-2.6-.2-8.4-3-8.7-2.8-.4-4.8 1.2-4.8 4.8 0 3.6-.4 4.6-1 3.7s-2.7-6.9-2.1-10.1c-1.5.1-4.3-1.4-4.3-1.4-3.6-2-5.5-7.8-6.1-13.5-.4-3.8-.2-7.5.6-10 1.2.8 2.2 2.1 2.3 2.2-.1-.4-1.9-6.9 1.2-13.3 2.5 1.8 25.3 2.9 25.3 2.9s-2-.9-3.3-2.5c6.4.6 31.5-2.9 26.3 19.5 3.4.7 7.1 3.1 6.3 9.7z"/><linearGradient id="i" x1="143.867" x2="147.667" y1="44.92" y2="118.065" gradientTransform="matrix(1 0 0 -1 0 166)" gradientUnits="userSpaceOnUse"><stop class="stopColor9275ff svgShape" offset="0" stop-color="#37c3ff"/><stop class="stopColorffb3ff svgShape" offset="1" stop-color="#ffb3ff"/></linearGradient><path fill="url(#i)" d="M131.6 106.4c1.6-3.9.1-6.7 5.5-6.6 5.4.2 12.2-2.4 15.5-4s3.4 1.6 5 5.3-4.6 7.6-4.6 7.6l-21.4-2.3z"/><linearGradient id="j" x1="148.376" x2="140.69" y1="-8.574" y2="84.78" gradientTransform="matrix(1 0 0 -1 0 166)" gradientUnits="userSpaceOnUse"><stop class="stopColor671cc9 svgShape" offset="0" stop-color="#039be5"/><stop class="stopColor6766c9 svgShape" offset="1" stop-color="#6766c9"/></linearGradient><path fill="url(#j)" d="M195.1 134.5v5.4l-.3.3c-.9 1-1.9 1.9-3 2.7-4.2 3-9 4.2-9 4.2l.3 3.2.4 5.4-.9.3c-1.7.5-3.6.9-5.8 1.3-6.1 1-14.1 1.5-24.6.8-4.8-.3-9-.8-12.9-1.5-1.8-.3-3.4-.7-5-1-3-.8-5.8-1.6-8.3-2.6-.2.1-.4.2-.5.3-.1-.2-.1-.4-.1-.5-1.4-.5-2.8-1.1-4.1-1.7-1.3-.6-2.6-1.2-3.8-1.9-4.5-2.3-8.5-4.8-12.8-7.1-2.4-1.3-4.9-2.6-7.6-3.8-.6-.3-1.2-.5-1.8-.8.1-.2.8-1.7 1.8-4 1.1-2.4 2.6-5.5 4.2-8.9 1.1-2.1 2.2-4.2 3.4-6.3.1-.1.1-.2.2-.3 2.1-3.8 4.4-7.2 6.4-9.4 2.4-2.6 6.2-3.8 10.5-4.3 2.6-.3 5.3-.4 8-.3.8 0 1.6 0 2.4.1 4.8.2 9.2.5 12 .1 3.6-.5 6.7-1.4 9.6-2.4 1.2-.4 2.3-.9 3.4-1.3 1-.4 2-.8 2.9-1.2 1.3-.6 2.6-1.1 3.8-1.6 2.6-1 5-1.8 7.5-1.8 1.4 0 2.8.1 4.2.5 5.8 1.8 9.7 7.7 13.6 18.4 1 2.8 2 6 3 9.5 1 3.1 2 6.5 2.9 10.2z"/><linearGradient id="k" x1="123.175" x2="133.113" y1="19.487" y2="44.854" gradientTransform="matrix(1 0 0 -1 0 166)" gradientUnits="userSpaceOnUse"><stop class="stopColor9275ff svgShape" offset="0" stop-color="#37c3ff"/><stop class="stopColorffccd3 svgShape" offset="1" stop-color="#ffccd3"/></linearGradient><path fill="url(#k)" d="M125.4 152.8c-1.4-.5-2.8-1.1-4.1-1.7-1.3-.6-2.6-1.2-3.8-1.9 3.1-6.9 5-13.6 6-15.2.8-1.2-.2 6.1 1.1 14.9.3 1.3.5 2.6.8 3.9z" opacity=".3"/><linearGradient id="l" x1="187.969" x2="173.72" y1="13.615" y2="91.89" gradientTransform="matrix(1 0 0 -1 0 166)" gradientUnits="userSpaceOnUse"><stop class="stopColor9275ff svgShape" offset="0" stop-color="#37c3ff"/><stop class="stopColorffccd3 svgShape" offset="1" stop-color="#ffccd3"/></linearGradient><path fill="url(#l)" d="M191.8 142.9c-4.2 3-9 4.2-9 4.2-.6-11.2-4.9-19.6-5.5-22.8-.6-3.2 1.1.8 5.5 8.7 2.1 3.8 5.7 7.3 9 9.9z" opacity=".3"/><linearGradient id="m" x1="96.337" x2="70.957" y1="-16.453" y2="76.848" gradientTransform="matrix(1 0 0 -1 0 166)" gradientUnits="userSpaceOnUse"><stop class="stopColorff7570 svgShape" offset="0" stop-color="#ff7570"/><stop class="stopColorfbb svgShape" offset="1" stop-color="#fbb"/></linearGradient><path fill="url(#m)" d="M95.4 137.6c-4.9-2-11.9-2.9-20.1-2.6-.5-1.8-1-3.6-1.5-5.3-.3-1-.6-2-.9-2.9-.4-1.4-.8-2.8-1.2-4-.3-.8-.5-1.5-.7-2.2-.5-1.6-1.1-3-1.5-4-.3-.7-.6-1.2-.8-1.6l-.3-.6c-.8-1.2-1.6-2.5-2.3-4-.4-.7-.7-1.4-1-2.2-1-2.4-1.8-5.1-1.8-8v-.1c0-.9 0-1.7.1-2.4.3-3.6 1.5-3.5 2.8-4.2 1.6-.8 6-1.2 6.1-3.4.1-2.1-1-7.4-.2-9.3.8-2 2.1-2.3 2.7-.2.6 2.1.8 11.2 1 11.6s1.9.4 2.6 2.7c.2.7.2 1.7.1 2.8-.1.8-.2 1.7-.4 2.4-.3 1.4-.6 2.5-.6 2.5s1.1 2.2 2.8 5.5c.4.7.7 1.4 1.1 2.2.6 1.3 1.3 2.6 2 4 .4.7.7 1.5 1.1 2.2.7 1.3 1.4 2.7 2.1 4 .4.7.8 1.5 1.1 2.2l1.8 3.6c.1.2.2.3.2.4 2.4 4.6 4.4 8.5 5.7 10.9 0-.1 0-.1 0 0z"/><path fill="#fff" d="M179.9 127.5c2.5-2.2 5.7-3.6 9.3-3.6 1.1 0 2.1.1 3.1.3-1-3.5-2-6.7-3-9.5-12.7 0-23 10.3-23 23.1 0 8.2 4.3 15.5 10.8 19.5 2.2-.4 4.1-.8 5.8-1.3l.9-.3-.4-5.4c-1.4-.7-2.6-1.5-3.7-2.6-2.6-2.5-4.2-6.1-4.2-10 0-3.5 1.3-6.7 3.5-9.2.1-.3.5-.7.9-1zm-50-23.4c-2.7 0-5.5 0-8 .3 1.5 1.9 2.4 4.2 2.4 6.8 0 6-4.9 10.9-10.9 10.9-3.4 0-6.4-1.5-8.4-4-.1.1-.1.2-.2.3-1.2 2.1-2.3 4.2-3.4 6.3 1 .9 2.2 1.7 3.4 2.4 2.5 1.4 5.5 2.2 8.6 2.2 9.9 0 18-8.1 18-18 0-2.7-.5-5.1-1.5-7.2zm-1.1 44.1c-1.4 0-2.8.3-4.1.8-1.3.5-2.4 1.2-3.3 2.1 1.3.6 2.6 1.2 4.1 1.7 0 .2.1.4.1.5.2-.1.3-.2.5-.3.8-.4 1.8-.6 2.7-.6 2.4 0 4.5 1.3 5.6 3.2 1.6.4 3.3.7 5 1-1-4.8-5.4-8.4-10.6-8.4zm42.7-52.4c-2.4.1-4.9.8-7.5 1.8h.5c3.6 0 6.6 2.9 6.6 6.6 0 3.6-2.9 6.6-6.6 6.6s-6.6-3-6.6-6.6c0-2 .9-3.8 2.3-5-.9.4-1.9.8-2.9 1.2-1.1.5-2.2.9-3.4 1.3-.2.8-.3 1.6-.3 2.4 0 1.3.2 2.5.6 3.6 1.5 4.3 5.5 7.3 10.3 7.3 6 0 10.9-4.9 10.9-10.9 0-3.2-1.5-6.3-3.9-8.3z" class="colorfff svgShape" opacity=".1"/><linearGradient id="n" x1="126.55" x2="118.285" y1="103.215" y2="71.298" gradientTransform="matrix(1 0 0 -1 0 166)" gradientUnits="userSpaceOnUse"><stop class="stopColorff7570 svgShape" offset="0" stop-color="#ff7570"/><stop class="stopColorfbb svgShape" offset="1" stop-color="#fbb"/></linearGradient><path fill="url(#n)" d="M124.6 68c-1.6-.1-1.2 3.8-.3 4.7 1 .8 3-4.6.3-4.7z"/><linearGradient id="o" x1="131.054" x2="168.861" y1="95.661" y2="208.513" gradientTransform="matrix(1 0 0 -1 0 166)" gradientUnits="userSpaceOnUse"><stop class="stopColor2a1f31 svgShape" offset="0" stop-color="#2a1f31"/><stop class="stopColor6a517f svgShape" offset="1" stop-color="#6a517f"/></linearGradient><path fill="url(#o)" d="M166 57.2c-.3 2.3-1.1 5.2-2.7 8.7-6.2 13.4-13.2 22-13.2 22l-.1.1-.3.2-.1.1c-1.2.9-4.7 2.8-10.3.8-7-2.5-13.9-11.3-14.2-12.7-.3-1.4 2.6.1 3.5-2.5.9-2.6-.2-8.4-3-8.7-2.8-.4-4.8 1.2-4.8 4.8 0 3.6-.4 4.6-1 3.7s-2.7-6.9-2.1-10.1c-1.5.1-4.3-1.4-4.3-1.4-3.6-2-5.5-7.8-6.1-13.5 4.5 6.2 14.2 7.5 20.9 10.1 7.6 3 10.5 5.4 14.7 6-2-1.3-2.9-4-2.9-4s2.4 2.7 12.4 2.5c7.1-.1 11.6-1.2 13.6-6.1z"/><path fill="#8bbcff" d="M39.3 43.9h-9.6c-.6 0-1.1.5-1.1 1.1 0 .6.5 1.1 1.1 1.1h9.6c.6 0 1.1-.5 1.1-1.1 0-.6-.5-1.1-1.1-1.1zm8.2 3.8H29.7c-.6 0-1.1.5-1.1 1.1 0 .6.5 1.1 1.1 1.1h17.8c.6 0 1.1-.5 1.1-1.1 0-.6-.5-1.1-1.1-1.1z" class="color8bbcff svgShape" enable-background="new" opacity=".25"/><linearGradient id="p" x1="84.935" x2="83.179" y1="25.559" y2="61.319" gradientTransform="matrix(1 0 0 -1 0 166)" gradientUnits="userSpaceOnUse"><stop class="stopColorff7570 svgShape" offset="0" stop-color="#ff7570"/><stop class="stopColorfbb svgShape" offset="1" stop-color="#fbb"/></linearGradient><path fill="url(#p)" d="M95.4 137.6c-4.9-2-11.9-2.9-20.1-2.6-.5-1.8-1-3.6-1.5-5.3 2-1 4.1-2.1 6.4-2.9 3-1 6.1-1.5 9.3-.4.1.2.2.3.2.4 2.4 4.5 4.4 8.4 5.7 10.8 0-.1 0-.1 0 0z"/><linearGradient id="q" x1="89.198" x2="91.003" y1="125.028" y2="112.772" gradientTransform="matrix(1 0 0 -1 0 166)" gradientUnits="userSpaceOnUse"><stop class="stopColorff227d svgShape" offset="0" stop-color="#ff227d"/><stop class="stopColorff967d svgShape" offset="1" stop-color="#faae42"/></linearGradient><path fill="url(#q)" d="M93.1 41.8c-.9-.9-2.1-1.4-3.3-1.4-1.2 0-2.4.5-3.3 1.4-1.8 1.8-1.8 4.7 0 6.5l3.3 3.3 3.3-3.3c.9-.9 1.3-2.1 1.3-3.3.1-1.1-.4-2.3-1.3-3.2zm-3.2 5c-.9 0-1.7-.8-1.7-1.7 0-1 .8-1.7 1.7-1.7 1 0 1.7.8 1.7 1.7s-.8 1.7-1.7 1.7z"/></svg></svg>